<?xml version="1.0" encoding="UTF-8" standalone="no"?>
<svg
   xmlns:dc="http://purl.org/dc/elements/1.1/"
   xmlns:cc="http://creativecommons.org/ns#"
   xmlns:rdf="http://www.w3.org/1999/02/22-rdf-syntax-ns#"
   xmlns:svg="http://www.w3.org/2000/svg"
   xmlns="http://www.w3.org/2000/svg"
   xmlns:sodipodi="http://sodipodi.sourceforge.net/DTD/sodipodi-0.dtd"
   xmlns:inkscape="http://www.inkscape.org/namespaces/inkscape"
   version="1.1"
   id="svg2"
   xml:space="preserve"
   width="101.33333"
   height="78.666664"
   viewBox="0 0 101.33333 78.666664"
   sodipodi:docname="airtel-seeklogo.com.eps"><metadata
     id="metadata8"><rdf:RDF><cc:Work
         rdf:about=""><dc:format>image/svg+xml</dc:format><dc:type
           rdf:resource="http://purl.org/dc/dcmitype/StillImage" /></cc:Work></rdf:RDF></metadata><defs
     id="defs6" /><sodipodi:namedview
     pagecolor="#ffffff"
     bordercolor="#666666"
     borderopacity="1"
     objecttolerance="10"
     gridtolerance="10"
     guidetolerance="10"
     inkscape:pageopacity="0"
     inkscape:pageshadow="2"
     inkscape:window-width="640"
     inkscape:window-height="480"
     id="namedview4" /><g
     id="g10"
     inkscape:groupmode="layer"
     inkscape:label="ink_ext_XXXXXX"
     transform="matrix(1.3333333,0,0,-1.3333333,0,78.666667)"><g
       id="g12"
       transform="scale(0.1)"><path
         d="m 417.68,497.605 c 28.765,3.422 62.258,-6.644 76.914,-33.484 15.199,-29 6.957,-64.183 -9.211,-90.933 -17.434,-31.774 -46.531,-54.883 -76.051,-74.782 -17.555,-11.125 -36.805,-22.777 -58.203,-22.574 -16.582,0.422 -27.586,18.828 -22.785,34.129 4.812,16.262 13.058,33.168 27.918,42.594 9.41,5.437 23.105,7.367 31.672,-0.446 4.39,-3.843 3.843,-10.371 0.652,-14.648 -10.379,-15.195 -26.973,-25.031 -35.738,-41.414 -1.618,-3.313 -3.223,-8.231 0.097,-11.117 4.168,-2.774 9.524,-0.961 13.813,0.422 19.137,7.074 35.515,19.589 51.23,32.214 23.961,19.571 46.977,44.286 52.637,75.844 2.246,13.688 -1.289,31.758 -15.613,37.426 -16.055,4.285 -31.985,-3.828 -45.578,-11.656 -20.321,-12.192 -40.754,-24.274 -59.371,-39.032 -13.262,-9.964 -27.188,-21.414 -44.184,-23.128 -17.434,-1.375 -34.445,15.414 -31.336,33.179 1.816,13.262 9.41,24.817 17.434,35.196 18.398,23.531 43.644,40.656 69.957,54.015 17.539,8.664 36.058,16.266 55.746,18.195 z M 299.039,221.387 c 9.953,2.89 19.57,-7.395 16.352,-17.227 -2.235,-10.051 -16.676,-13.472 -23.524,-5.879 -7.48,7.059 -3.422,21.918 7.172,23.106 z m 91.777,-12.305 c 7.176,1.172 14.434,2.356 21.719,3.324 -0.316,-8.793 0.11,-17.664 0,-26.418 4.602,-0.113 9.297,-0.113 13.906,-0.234 -0.207,-5.555 -0.207,-11.113 0,-16.672 -4.711,0 -9.304,0 -13.906,-0.113 -0.219,-16.586 0,-33.168 -0.219,-49.649 0.219,-3.843 -0.097,-8.109 2.149,-11.433 3.324,-3.219 8.34,-3.106 12.734,-3.965 -0.222,-4.8087 -0.222,-9.6329 0,-14.3439 -10.062,-0.3125 -21.301,0 -29.207,7.3985 -5.461,4.5894 -7.289,12.1834 -7.289,19.1444 0.113,31.012 0.113,61.949 0.113,92.961 z m 129.774,0 c 6.949,1.172 13.894,2.469 20.961,3.633 0.32,-33.156 -0.211,-66.426 0.211,-99.586 -0.211,-7.813 8.777,-8.785 14.547,-9.207 -0.102,-4.8087 -0.102,-9.7267 0.117,-14.6564 -10.067,-0.3086 -21.289,0.1094 -29,7.711 -5.668,5.0314 -7.059,12.9374 -6.926,20.2144 0.09,30.586 -0.133,61.301 0.09,91.891 z M 210.035,177.844 c 11.012,5.98 23.207,10.269 35.934,9.519 14.117,0.325 28.773,-9.945 30.707,-24.383 0.219,-18.941 1.715,-38.085 -0.113,-56.917 -10.047,-12.0903 -26.844,-17.6528 -42.36,-17.0083 -18.273,-0.0977 -34.66,18.1833 -31.758,36.4723 1.383,12.106 10.684,22.903 22.668,25.578 10.274,2.243 20.977,1.172 31.457,1.383 0,6.418 -1.621,13.707 -8.246,16.258 -10.922,4.078 -22.258,-1.387 -32.195,-5.883 -2.02,5.028 -4.07,9.961 -6.094,14.981 z m 121.192,-5.672 c 13.601,13.492 34.359,18.621 52.839,14.551 -2.554,-6.203 -5.445,-12.196 -8.339,-18.184 -9.082,0.961 -18.5,0.207 -26.524,-4.594 0.106,-24.406 0.219,-48.906 0,-73.2848 -7.062,0.1054 -14.125,0.1054 -21.183,0 -0.313,23.5428 0.117,46.9728 -0.211,70.5038 -0.102,3.836 0.211,8.231 3.418,11.008 z m 114.574,3.113 c 11.133,13.582 32.844,14.547 47.183,5.875 14.118,-10.152 15.727,-29.316 16.149,-45.359 -17.86,0.113 -35.723,0.226 -53.688,0 0.528,-10.809 3.625,-23.207 14.121,-28.344 11.016,-4.809 22.782,1.176 33.051,5.348 2.024,-4.602 4.164,-9.098 6.41,-13.4769 -17.437,-10.9179 -42.91,-15.9375 -59.695,-1.3867 -20.629,19.8906 -20.211,55.1956 -3.531,77.3436 z m -153.617,6.84 c 6.855,0.961 13.695,2.039 20.64,3.105 0.332,-31.453 -0.086,-63.019 0.219,-94.4644 -6.949,0 -14.004,0 -20.977,-0.1054 0,30.4878 -0.089,60.9808 0.118,91.4648 z m 170.195,-16.051 c 5.035,5.563 14.976,5.781 19.687,-0.101 3.223,-3.953 3.848,-9.196 5.036,-14.008 -10.047,0 -20.223,0 -30.383,0 1.394,4.812 2.148,10.371 5.66,14.109 z m -232.774,-33.59 c 7.704,5.036 17.438,2.575 26.106,3.102 -0.426,-8.016 0.859,-16.266 -0.535,-24.281 -5.035,-5.68 -14.231,-6.723 -21.078,-4.067 -9.727,3.973 -13.051,18.621 -4.493,25.246"
         style="fill:#ed1c24;fill-opacity:1;fill-rule:evenodd;stroke:none"
         id="path14" /></g></g></svg>
